<svg width="48" height="48" viewBox="0 0 48 48" fill="none" xmlns="http://www.w3.org/2000/svg">
<g clip-path="url(#clip0_30_3)">
<rect width="48" height="48" fill="white"/>
<rect x="15.5" y="34.5" width="9" height="10" fill="#152C5B" stroke="#152C5B"/>
<rect x="1.5" y="27.5" width="4" height="17" fill="#152C5B" stroke="#152C5B"/>
<path d="M7 45H14L14 33H18.717L18.717 4H7V45Z" fill="#152C5B"/>
<path d="M34 45H25.8675L25.8675 33H22.283L22.283 18.4706H23.8113H34V45Z" fill="#152C5B"/>
<path d="M7 45H14L14 33H18.717L18.717 4H7V45Z" stroke="#152C5B"/>
<path d="M34 45H25.8675L25.8675 33H22.283L22.283 18.4706H23.8113H34V45Z" stroke="#152C5B"/>
<path d="M10 38.75V37.25C10 37.1119 10.1119 37 10.25 37C10.3881 37 10.5 37.1119 10.5 37.25V38.75C10.5 38.8881 10.3881 39 10.25 39C10.1119 39 10 38.8881 10 38.75Z" stroke="white"/>
<path d="M10 24.75V23.25C10 23.1119 10.1119 23 10.25 23C10.3881 23 10.5 23.1119 10.5 23.25V24.75C10.5 24.8881 10.3881 25 10.25 25C10.1119 25 10 24.8881 10 24.75Z" stroke="white"/>
<path d="M10 10.75V9.25C10 9.11193 10.1119 9 10.25 9C10.3881 9 10.5 9.11193 10.5 9.25V10.75C10.5 10.8881 10.3881 11 10.25 11C10.1119 11 10 10.8881 10 10.75Z" stroke="white"/>
<path d="M15 17.75V16.25C15 16.1119 15.1119 16 15.25 16C15.3881 16 15.5 16.1119 15.5 16.25V17.75C15.5 17.8881 15.3881 18 15.25 18C15.1119 18 15 17.8881 15 17.75Z" stroke="white"/>
<path d="M31 29.75V28.25C31 28.1119 31.1119 28 31.25 28C31.3881 28 31.5 28.1119 31.5 28.25V29.75C31.5 29.8881 31.3881 30 31.25 30C31.1119 30 31 29.8881 31 29.75Z" stroke="white"/>
<path d="M25 29.75V28.25C25 28.1119 25.1119 28 25.25 28C25.3881 28 25.5 28.1119 25.5 28.25V29.75C25.5 29.8881 25.3881 30 25.25 30C25.1119 30 25 29.8881 25 29.75Z" stroke="white"/>
<path d="M15 24.75V23.25C15 23.1119 15.1119 23 15.25 23C15.3881 23 15.5 23.1119 15.5 23.25V24.75C15.5 24.8881 15.3881 25 15.25 25C15.1119 25 15 24.8881 15 24.75Z" stroke="white"/>
<path d="M31 36.75V35.25C31 35.1119 31.1119 35 31.25 35C31.3881 35 31.5 35.1119 31.5 35.25V36.75C31.5 36.8881 31.3881 37 31.25 37C31.1119 37 31 36.8881 31 36.75Z" stroke="white"/>
<path d="M22 38.75V37.25C22 37.1119 22.1119 37 22.25 37C22.3881 37 22.5 37.1119 22.5 37.25V38.75C22.5 38.8881 22.3881 39 22.25 39C22.1119 39 22 38.8881 22 38.75Z" stroke="white"/>
<path d="M17 38.75V37.25C17 37.1119 17.1119 37 17.25 37C17.3881 37 17.5 37.1119 17.5 37.25V38.75C17.5 38.8881 17.3881 39 17.25 39C17.1119 39 17 38.8881 17 38.75Z" stroke="white"/>
<path d="M15 10.75V9.25C15 9.11193 15.1119 9 15.25 9C15.3881 9 15.5 9.11193 15.5 9.25V10.75C15.5 10.8881 15.3881 11 15.25 11C15.1119 11 15 10.8881 15 10.75Z" stroke="white"/>
<path d="M31 22.75V21.25C31 21.1119 31.1119 21 31.25 21C31.3881 21 31.5 21.1119 31.5 21.25V22.75C31.5 22.8881 31.3881 23 31.25 23C31.1119 23 31 22.8881 31 22.75Z" stroke="white"/>
<path d="M25 22.75V21.25C25 21.1119 25.1119 21 25.25 21C25.3881 21 25.5 21.1119 25.5 21.25V22.75C25.5 22.8881 25.3881 23 25.25 23C25.1119 23 25 22.8881 25 22.75Z" stroke="white"/>
<path d="M10 17.75V16.25C10 16.1119 10.1119 16 10.25 16C10.3881 16 10.5 16.1119 10.5 16.25V17.75C10.5 17.8881 10.3881 18 10.25 18C10.1119 18 10 17.8881 10 17.75Z" stroke="white"/>
<path d="M10 31.75V30.25C10 30.1119 10.1119 30 10.25 30C10.3881 30 10.5 30.1119 10.5 30.25V31.75C10.5 31.8881 10.3881 32 10.25 32C10.1119 32 10 31.8881 10 31.75Z" stroke="white"/>
</g>
<defs>
<clipPath id="clip0_30_3">
<rect width="48" height="48" fill="white"/>
</clipPath>
</defs>
</svg>
