<svg width="48" height="48" viewBox="0 0 48 48" fill="none" xmlns="http://www.w3.org/2000/svg">
<rect width="48" height="48" fill="white"/>
<mask id="path-1-inside-1_30_78" fill="white">
<path fill-rule="evenodd" clip-rule="evenodd" d="M19.1768 8C18.4505 8 17.7812 8.39378 17.4285 9.02871L15.2222 13H8C3.58172 13 0 16.5817 0 21V31C0 35.4183 3.58172 39 8 39H40C44.4183 39 48 35.4183 48 31V21C48 16.5817 44.4183 13 40 13H32.7778L30.5715 9.02871C30.2188 8.39378 29.5495 8 28.8232 8H19.1768Z"/>
</mask>
<path d="M17.4285 9.02871L14.806 7.57179V7.57179L17.4285 9.02871ZM15.2222 13V16H16.9874L17.8447 14.4569L15.2222 13ZM32.7778 13L30.1553 14.4569L31.0126 16H32.7778V13ZM30.5715 9.02871L33.194 7.57179V7.57178L30.5715 9.02871ZM20.051 10.4856C19.8746 10.8031 19.54 11 19.1768 11V5C17.361 5 15.6879 5.98446 14.806 7.57179L20.051 10.4856ZM17.8447 14.4569L20.051 10.4856L14.806 7.57179L12.5997 11.5431L17.8447 14.4569ZM8 16H15.2222V10H8V16ZM3 21C3 18.2386 5.23858 16 8 16V10C1.92487 10 -3 14.9249 -3 21H3ZM3 31V21H-3V31H3ZM8 36C5.23858 36 3 33.7614 3 31H-3C-3 37.0751 1.92487 42 8 42V36ZM40 36H8V42H40V36ZM45 31C45 33.7614 42.7614 36 40 36V42C46.0751 42 51 37.0751 51 31H45ZM45 21V31H51V21H45ZM40 16C42.7614 16 45 18.2386 45 21H51C51 14.9249 46.0751 10 40 10V16ZM32.7778 16H40V10H32.7778V16ZM27.949 10.4856L30.1553 14.4569L35.4002 11.5431L33.194 7.57179L27.949 10.4856ZM28.8232 11C28.46 11 28.1254 10.8031 27.949 10.4856L33.194 7.57178C32.3121 5.98446 30.639 5 28.8232 5V11ZM19.1768 11H28.8232V5H19.1768V11Z" fill="#152C5B" mask="url(#path-1-inside-1_30_78)"/>
<circle cx="24" cy="26" r="5.5" stroke="#0041C7" stroke-width="3"/>
<path d="M35 20H40C40 20 40 20 40 20V20C40 20 40 20 40 20H35C35 20 35 20 35 20V20C35 20 35 20 35 20Z" stroke="#152C5B" stroke-width="2"/>
<rect x="0.5" y="-0.5" width="5" height="2" rx="0.5" transform="matrix(1 0 0 -1 7 21)" stroke="#152C5B"/>
<path d="M39.5 12.5C39.5 13.1324 39.4997 13.5811 39.4777 13.9121C39.4546 14.2581 39.4107 14.3853 39.3838 14.4303C39.3784 14.4391 39.3773 14.4393 39.3767 14.4394C39.3767 14.4394 39.3766 14.4394 39.3765 14.4394C39.3705 14.443 39.3446 14.4566 39.2761 14.4693C39.1212 14.498 38.895 14.5 38.5 14.5C38.105 14.5 37.8788 14.498 37.7239 14.4693C37.6554 14.4566 37.6295 14.443 37.6235 14.4394C37.6234 14.4394 37.6233 14.4394 37.6233 14.4394C37.6227 14.4393 37.6216 14.4391 37.6162 14.4303C37.5893 14.3853 37.5454 14.2581 37.5223 13.9121C37.5003 13.5811 37.5 13.1324 37.5 12.5C37.5 11.9477 37.9477 11.5 38.5 11.5C39.0523 11.5 39.5 11.9477 39.5 12.5Z" fill="#152C5B" stroke="#152C5B"/>
</svg>
