<svg width="28" height="27" viewBox="0 0 28 27" fill="none" xmlns="http://www.w3.org/2000/svg">
<path d="M12.9396 1.36455C13.2389 0.443243 14.5423 0.44324 14.8417 1.36455L17.2969 8.92101C17.4308 9.33303 17.8148 9.61199 18.248 9.61199L26.1933 9.61199C27.162 9.61199 27.5648 10.8516 26.7811 11.421L20.3532 16.0912C20.0027 16.3458 19.856 16.7972 19.9899 17.2092L22.4452 24.7656C22.7445 25.687 21.69 26.4531 20.9063 25.8837L14.4784 21.2135C14.1279 20.9589 13.6533 20.9589 13.3028 21.2135L6.87494 25.8837C6.09122 26.4531 5.03674 25.687 5.33609 24.7656L7.79133 17.2092C7.92521 16.7972 7.77855 16.3458 7.42806 16.0912L1.00016 11.421C0.216445 10.8516 0.619217 9.61199 1.58794 9.61199L9.53327 9.61199C9.9665 9.61199 10.3505 9.33303 10.4843 8.92101L12.9396 1.36455Z" fill="#FFC34E"/>
</svg>
